<svg width="20" height="20" viewBox="0 0 20 20" fill="none" xmlns="http://www.w3.org/2000/svg">
<path d="M7.76682 1.87585C9.05806 0.79122 10.9419 0.79122 12.2332 1.87585C12.7797 2.33493 13.4545 2.61443 14.1656 2.67626C15.8455 2.82236 17.1776 4.15446 17.3237 5.83445C17.3856 6.54554 17.6651 7.22029 18.1242 7.76682C19.2088 9.05806 19.2088 10.9419 18.1242 12.2332C17.6651 12.7797 17.3856 13.4545 17.3237 14.1656C17.1776 15.8455 15.8455 17.1776 14.1656 17.3237C13.4545 17.3856 12.7797 17.6651 12.2332 18.1242C10.9419 19.2088 9.05806 19.2088 7.76682 18.1242C7.22029 17.6651 6.54554 17.3856 5.83445 17.3237C4.15446 17.1776 2.82236 15.8455 2.67626 14.1656C2.61443 13.4545 2.33493 12.7797 1.87585 12.2332C0.79122 10.9419 0.79122 9.05806 1.87585 7.76682C2.33493 7.22029 2.61443 6.54554 2.67626 5.83445C2.82236 4.15446 4.15446 2.82236 5.83445 2.67626C6.54554 2.61443 7.22029 2.33493 7.76682 1.87585Z" fill="#2A7650"/>
<path d="M6.66675 9.78556L8.95229 12.0711L13.5229 7.5" stroke="white" stroke-width="1.07741" stroke-linecap="round" stroke-linejoin="round"/>
</svg>
