<svg width="459" height="241" viewBox="0 0 459 241" fill="none" xmlns="http://www.w3.org/2000/svg">
<path d="M18.0625 202.047L9.74219 229H0.90625L13.4453 194.875H19.0469L18.0625 202.047ZM24.9531 229L16.6094 202.047L15.5312 194.875H21.2031L33.8125 229H24.9531ZM24.625 216.273V222.625H7.11719V216.273H24.625ZM47.4062 229H39.8359L39.8828 222.672H47.4062C48.9688 222.672 50.2891 222.297 51.3672 221.547C52.4609 220.797 53.2891 219.68 53.8516 218.195C54.4297 216.695 54.7188 214.852 54.7188 212.664V211.188C54.7188 209.547 54.5547 208.109 54.2266 206.875C53.9141 205.625 53.4453 204.586 52.8203 203.758C52.1953 202.914 51.4141 202.281 50.4766 201.859C49.5547 201.438 48.4922 201.227 47.2891 201.227H39.6953V194.875H47.2891C49.6016 194.875 51.7188 195.273 53.6406 196.07C55.5781 196.852 57.25 197.977 58.6562 199.445C60.0781 200.898 61.1719 202.625 61.9375 204.625C62.7188 206.609 63.1094 208.812 63.1094 211.234V212.664C63.1094 215.07 62.7188 217.273 61.9375 219.273C61.1719 221.273 60.0859 223 58.6797 224.453C57.2734 225.906 55.6094 227.031 53.6875 227.828C51.7812 228.609 49.6875 229 47.4062 229ZM44.5469 194.875V229H36.3203V194.875H44.5469ZM71.4766 194.875H78.1797L85.7969 218.617L93.4141 194.875H100.117L88.5156 229H83.0781L71.4766 194.875ZM67.3984 194.875H74.3359L75.625 221.031V229H67.3984V194.875ZM97.2578 194.875H104.219V229H95.9688V221.031L97.2578 194.875ZM118.234 194.875V229H110.031V194.875H118.234ZM152.523 194.875V229H144.32L132.25 207.766V229H124.023V194.875H132.25L144.32 216.109V194.875H152.523Z" fill="#1E3329"/>
<path d="M37.5669 173H18.9341H5.73584V68.501H18.9341H37.5669H68.6992C74.1338 68.501 79.1802 70.856 83.8384 75.5659C88.4966 80.2241 92.1714 86.5903 94.8628 94.6646C97.606 102.687 98.9775 111.408 98.9775 120.828C98.9775 130.196 97.606 138.892 94.8628 146.914C92.1714 154.937 88.4966 161.303 83.8384 166.013C79.1802 170.671 74.1338 173 68.6992 173H37.5669ZM37.5669 74.0908V168.264H42.5356C46.8833 168.264 50.9463 165.935 54.7246 161.277C58.5547 156.619 61.5566 150.667 63.7305 143.42C65.9043 136.123 66.9912 128.592 66.9912 120.828C66.9912 113.064 65.9043 105.611 63.7305 98.4688C61.5566 91.2744 58.5547 85.4258 54.7246 80.9229C50.9463 76.3682 46.8833 74.0908 42.5356 74.0908H37.5669ZM108.527 173.466V103.36L140.358 98.0806V173.466H108.527ZM135.7 86.5127C132.594 89.5664 128.842 91.0933 124.442 91.0933C120.043 91.0933 116.291 89.5664 113.185 86.5127C110.08 83.4072 108.527 79.6289 108.527 75.1777C108.527 70.7783 110.08 67.0518 113.185 63.998C116.291 60.8926 120.043 59.3398 124.442 59.3398C128.842 59.3398 132.594 60.8926 135.7 63.998C138.805 67.0518 140.358 70.7783 140.358 75.1777C140.358 79.6289 138.805 83.4072 135.7 86.5127ZM181.816 173V173.466H149.83V98.0806L166.521 103.36C171.697 99.8403 178.866 98.0806 188.027 98.0806C198.482 98.0806 207.41 101.781 214.812 109.183C222.265 116.532 225.991 125.409 225.991 135.812V173H194.238V135.812C194.238 126.806 193.643 119.146 192.452 112.832C191.262 106.517 189.787 103.36 188.027 103.36C186.267 103.36 184.792 106.517 183.602 112.832C182.411 119.146 181.816 126.806 181.816 135.812V173ZM283.753 173.466H255.648L226.69 98.0806H261.161L286.47 165.236L298.582 129.291C299.513 126.754 300.083 124.348 300.29 122.07C300.497 119.793 300.445 117.774 300.134 116.015C299.824 114.255 299.177 112.573 298.193 110.968C297.262 109.364 296.252 107.992 295.166 106.854C294.13 105.715 292.785 104.576 291.128 103.438C289.524 102.247 288.075 101.29 286.781 100.565C285.487 99.7886 283.96 98.9604 282.2 98.0806H309.062H314.963L289.809 173.466H289.498H283.753ZM355.567 173.466C348.787 173.466 342.498 171.784 336.701 168.419C330.956 165.055 326.401 160.5 323.037 154.755C319.673 148.958 317.991 142.644 317.991 135.812C317.991 128.98 319.673 122.666 323.037 116.869C326.401 111.072 330.956 106.491 336.701 103.127C342.498 99.7627 348.787 98.0806 355.567 98.0806C359.397 98.0806 363.124 98.5723 366.747 99.5557C370.37 100.539 373.656 102.221 376.606 104.602C379.608 106.931 381.549 109.752 382.429 113.064C383.309 116.429 383.206 119.638 382.119 122.691C381.083 125.745 379.375 128.359 376.995 130.533C374.614 132.707 371.819 134.622 368.61 136.278C365.401 137.882 362.088 139.099 358.672 139.927C355.256 140.703 351.996 141.065 348.89 141.014C352.824 147.432 356.887 152.297 361.079 155.609C365.323 158.87 369.153 159.672 372.569 158.016C375.261 156.722 377.486 154.807 379.246 152.271C381.058 149.683 382.869 145.982 384.681 141.169L388.951 141.014C388.278 146.552 386.88 151.443 384.758 155.687C382.636 159.931 380.022 163.321 376.917 165.857C373.812 168.394 370.447 170.309 366.824 171.603C363.253 172.845 359.5 173.466 355.567 173.466ZM346.328 107.475C343.688 109.855 342.343 113.789 342.291 119.275C342.239 124.762 343.481 130.17 346.018 135.501C348.14 136.019 350.365 135.941 352.694 135.269C355.023 134.544 357.068 133.431 358.828 131.93C360.639 130.429 362.244 128.695 363.641 126.729C365.039 124.71 365.867 122.666 366.125 120.595C366.436 118.525 366.255 116.584 365.582 114.772C363.978 111.512 361.907 109.079 359.371 107.475C356.835 105.87 354.402 105.12 352.073 105.223C349.796 105.327 347.881 106.077 346.328 107.475ZM422.956 104.602C421.817 105.844 421.118 107.682 420.859 110.114C420.601 112.547 420.885 115.187 421.713 118.033C422.542 120.88 423.861 123.416 425.673 125.642C427.795 128.281 428.856 131.024 428.856 133.871V173.466H396.87V113.996C396.87 109.597 398.422 105.844 401.528 102.739C404.633 99.6333 408.386 98.0806 412.785 98.0806H455.718V119.431C454.994 118.085 453.182 116.273 450.284 113.996C447.385 111.667 444.15 109.545 440.579 107.63C437.06 105.663 433.618 104.266 430.253 103.438C426.941 102.609 424.508 102.998 422.956 104.602Z" fill="black"/>
</svg>
