<svg width="451" height="115" viewBox="0 0 451 115" fill="none" xmlns="http://www.w3.org/2000/svg">
<path d="M32.5669 114H13.9341H0.73584V9.50098H13.9341H32.5669H63.6992C69.1338 9.50098 74.1802 11.856 78.8384 16.5659C83.4966 21.2241 87.1714 27.5903 89.8628 35.6646C92.606 43.687 93.9775 52.4082 93.9775 61.8281C93.9775 71.1963 92.606 79.8916 89.8628 87.9141C87.1714 95.9365 83.4966 102.303 78.8384 107.013C74.1802 111.671 69.1338 114 63.6992 114H32.5669ZM32.5669 15.0908V109.264H37.5356C41.8833 109.264 45.9463 106.935 49.7246 102.277C53.5547 97.6187 56.5566 91.6665 58.7305 84.4204C60.9043 77.1226 61.9912 69.5918 61.9912 61.8281C61.9912 54.0645 60.9043 46.6113 58.7305 39.4688C56.5566 32.2744 53.5547 26.4258 49.7246 21.9229C45.9463 17.3682 41.8833 15.0908 37.5356 15.0908H32.5669ZM103.527 114.466V44.3599L135.358 39.0806V114.466H103.527ZM130.7 27.5127C127.594 30.5664 123.842 32.0933 119.442 32.0933C115.043 32.0933 111.291 30.5664 108.185 27.5127C105.08 24.4072 103.527 20.6289 103.527 16.1777C103.527 11.7783 105.08 8.05176 108.185 4.99805C111.291 1.89258 115.043 0.339844 119.442 0.339844C123.842 0.339844 127.594 1.89258 130.7 4.99805C133.805 8.05176 135.358 11.7783 135.358 16.1777C135.358 20.6289 133.805 24.4072 130.7 27.5127ZM176.816 114V114.466H144.83V39.0806L161.521 44.3599C166.697 40.8403 173.866 39.0806 183.027 39.0806C193.482 39.0806 202.41 42.7812 209.812 50.1826C217.265 57.5322 220.991 66.4087 220.991 76.812V114H189.238V76.812C189.238 67.8062 188.643 60.146 187.452 53.8315C186.262 47.5171 184.787 44.3599 183.027 44.3599C181.267 44.3599 179.792 47.5171 178.602 53.8315C177.411 60.146 176.816 67.8062 176.816 76.812V114ZM278.753 114.466H250.648L221.69 39.0806H256.161L281.47 106.236L293.582 70.2905C294.513 67.7544 295.083 65.3477 295.29 63.0703C295.497 60.793 295.445 58.7744 295.134 57.0146C294.824 55.2549 294.177 53.5728 293.193 51.9683C292.262 50.3638 291.252 48.9922 290.166 47.8535C289.13 46.7148 287.785 45.5762 286.128 44.4375C284.524 43.2471 283.075 42.2896 281.781 41.5649C280.487 40.7886 278.96 39.9604 277.2 39.0806H304.062H309.963L284.809 114.466H284.498H278.753ZM350.567 114.466C343.787 114.466 337.498 112.784 331.701 109.419C325.956 106.055 321.401 101.5 318.037 95.7554C314.673 89.9585 312.991 83.644 312.991 76.812C312.991 69.98 314.673 63.6655 318.037 57.8687C321.401 52.0718 325.956 47.4912 331.701 44.127C337.498 40.7627 343.787 39.0806 350.567 39.0806C354.397 39.0806 358.124 39.5723 361.747 40.5557C365.37 41.5391 368.656 43.2212 371.606 45.6021C374.608 47.9312 376.549 50.752 377.429 54.0645C378.309 57.4287 378.206 60.6377 377.119 63.6914C376.083 66.7451 374.375 69.3589 371.995 71.5327C369.614 73.7065 366.819 75.6216 363.61 77.2778C360.401 78.8823 357.088 80.0986 353.672 80.9268C350.256 81.7031 346.996 82.0654 343.89 82.0137C347.824 88.4316 351.887 93.2969 356.079 96.6094C360.323 99.8701 364.153 100.672 367.569 99.0161C370.261 97.7222 372.486 95.8071 374.246 93.271C376.058 90.6831 377.869 86.9824 379.681 82.1689L383.951 82.0137C383.278 87.5518 381.88 92.4429 379.758 96.687C377.636 100.931 375.022 104.321 371.917 106.857C368.812 109.394 365.447 111.309 361.824 112.603C358.253 113.845 354.5 114.466 350.567 114.466ZM341.328 48.4746C338.688 50.8555 337.343 54.7891 337.291 60.2754C337.239 65.7617 338.481 71.1704 341.018 76.5015C343.14 77.019 345.365 76.9414 347.694 76.2686C350.023 75.5439 352.068 74.4312 353.828 72.9302C355.639 71.4292 357.244 69.6953 358.641 67.7285C360.039 65.71 360.867 63.6655 361.125 61.5952C361.436 59.5249 361.255 57.584 360.582 55.7725C358.978 52.5117 356.907 50.0791 354.371 48.4746C351.835 46.8701 349.402 46.1196 347.073 46.2231C344.796 46.3267 342.881 47.0771 341.328 48.4746ZM417.956 45.6021C416.817 46.8442 416.118 48.6816 415.859 51.1143C415.601 53.5469 415.885 56.1865 416.713 59.0332C417.542 61.8799 418.861 64.416 420.673 66.6416C422.795 69.2812 423.856 72.0244 423.856 74.8711V114.466H391.87V54.9961C391.87 50.5967 393.422 46.8442 396.528 43.7388C399.633 40.6333 403.386 39.0806 407.785 39.0806H450.718V60.4307C449.994 59.085 448.182 57.2734 445.284 54.9961C442.385 52.667 439.15 50.5449 435.579 48.6299C432.06 46.6631 428.618 45.2656 425.253 44.4375C421.941 43.6094 419.508 43.9976 417.956 45.6021Z" fill="#FFF5C4"/>
</svg>
