<svg width="1000" height="1000" viewBox="0 0 1000 1000" fill="none" xmlns="http://www.w3.org/2000/svg">
<g clip-path="url(#clip0_695_5)">
<path d="M1000 0H0V1000H1000V0Z" fill="#1E3329"/>
<path d="M418.47 787H315.754H243V212H315.754H418.47H590.086C620.047 212 647.863 224.958 673.54 250.875C699.223 276.505 719.476 311.534 734.316 355.966C749.437 400.107 757 448.093 757 499.926C757 551.473 749.437 599.323 734.316 643.463C719.476 687.609 699.223 722.638 673.54 748.554C647.863 774.185 620.047 787 590.086 787H418.47ZM418.47 242.759V760.94H445.861C469.824 760.94 492.222 748.125 513.054 722.495C534.167 696.864 550.715 664.114 562.694 624.238C574.678 584.086 580.67 542.647 580.67 499.926C580.67 457.205 574.678 416.196 562.694 376.897C550.715 337.307 534.167 305.129 513.054 280.351C492.222 255.288 469.824 242.759 445.861 242.759H418.47Z" fill="#FFF5C4"/>
</g>
<defs>
<clipPath id="clip0_695_5">
<rect width="1000" height="1000" fill="white"/>
</clipPath>
</defs>
</svg>
