<svg width="458" height="242" viewBox="0 0 458 242" fill="none" xmlns="http://www.w3.org/2000/svg">
<path d="M36.5669 173H17.9341H4.73584V68.501H17.9341H36.5669H67.6992C73.1338 68.501 78.1802 70.856 82.8384 75.5659C87.4966 80.2241 91.1714 86.5903 93.8628 94.6646C96.606 102.687 97.9775 111.408 97.9775 120.828C97.9775 130.196 96.606 138.892 93.8628 146.914C91.1714 154.937 87.4966 161.303 82.8384 166.013C78.1802 170.671 73.1338 173 67.6992 173H36.5669ZM36.5669 74.0908V168.264H41.5356C45.8833 168.264 49.9463 165.935 53.7246 161.277C57.5547 156.619 60.5566 150.667 62.7305 143.42C64.9043 136.123 65.9912 128.592 65.9912 120.828C65.9912 113.064 64.9043 105.611 62.7305 98.4688C60.5566 91.2744 57.5547 85.4258 53.7246 80.9229C49.9463 76.3682 45.8833 74.0908 41.5356 74.0908H36.5669ZM107.527 173.466V103.36L139.358 98.0806V173.466H107.527ZM134.7 86.5127C131.594 89.5664 127.842 91.0933 123.442 91.0933C119.043 91.0933 115.291 89.5664 112.185 86.5127C109.08 83.4072 107.527 79.6289 107.527 75.1777C107.527 70.7783 109.08 67.0518 112.185 63.998C115.291 60.8926 119.043 59.3398 123.442 59.3398C127.842 59.3398 131.594 60.8926 134.7 63.998C137.805 67.0518 139.358 70.7783 139.358 75.1777C139.358 79.6289 137.805 83.4072 134.7 86.5127ZM180.816 173V173.466H148.83V98.0806L165.521 103.36C170.697 99.8403 177.866 98.0806 187.027 98.0806C197.482 98.0806 206.41 101.781 213.812 109.183C221.265 116.532 224.991 125.409 224.991 135.812V173H193.238V135.812C193.238 126.806 192.643 119.146 191.452 112.832C190.262 106.517 188.787 103.36 187.027 103.36C185.267 103.36 183.792 106.517 182.602 112.832C181.411 119.146 180.816 126.806 180.816 135.812V173ZM282.753 173.466H254.648L225.69 98.0806H260.161L285.47 165.236L297.582 129.291C298.513 126.754 299.083 124.348 299.29 122.07C299.497 119.793 299.445 117.774 299.134 116.015C298.824 114.255 298.177 112.573 297.193 110.968C296.262 109.364 295.252 107.992 294.166 106.854C293.13 105.715 291.785 104.576 290.128 103.438C288.524 102.247 287.075 101.29 285.781 100.565C284.487 99.7886 282.96 98.9604 281.2 98.0806H308.062H313.963L288.809 173.466H288.498H282.753ZM354.567 173.466C347.787 173.466 341.498 171.784 335.701 168.419C329.956 165.055 325.401 160.5 322.037 154.755C318.673 148.958 316.991 142.644 316.991 135.812C316.991 128.98 318.673 122.666 322.037 116.869C325.401 111.072 329.956 106.491 335.701 103.127C341.498 99.7627 347.787 98.0806 354.567 98.0806C358.397 98.0806 362.124 98.5723 365.747 99.5557C369.37 100.539 372.656 102.221 375.606 104.602C378.608 106.931 380.549 109.752 381.429 113.064C382.309 116.429 382.206 119.638 381.119 122.691C380.083 125.745 378.375 128.359 375.995 130.533C373.614 132.707 370.819 134.622 367.61 136.278C364.401 137.882 361.088 139.099 357.672 139.927C354.256 140.703 350.996 141.065 347.89 141.014C351.824 147.432 355.887 152.297 360.079 155.609C364.323 158.87 368.153 159.672 371.569 158.016C374.261 156.722 376.486 154.807 378.246 152.271C380.058 149.683 381.869 145.982 383.681 141.169L387.951 141.014C387.278 146.552 385.88 151.443 383.758 155.687C381.636 159.931 379.022 163.321 375.917 165.857C372.812 168.394 369.447 170.309 365.824 171.603C362.253 172.845 358.5 173.466 354.567 173.466ZM345.328 107.475C342.688 109.855 341.343 113.789 341.291 119.275C341.239 124.762 342.481 130.17 345.018 135.501C347.14 136.019 349.365 135.941 351.694 135.269C354.023 134.544 356.068 133.431 357.828 131.93C359.639 130.429 361.244 128.695 362.641 126.729C364.039 124.71 364.867 122.666 365.125 120.595C365.436 118.525 365.255 116.584 364.582 114.772C362.978 111.512 360.907 109.079 358.371 107.475C355.835 105.87 353.402 105.12 351.073 105.223C348.796 105.327 346.881 106.077 345.328 107.475ZM421.956 104.602C420.817 105.844 420.118 107.682 419.859 110.114C419.601 112.547 419.885 115.187 420.713 118.033C421.542 120.88 422.861 123.416 424.673 125.642C426.795 128.281 427.856 131.024 427.856 133.871V173.466H395.87V113.996C395.87 109.597 397.422 105.844 400.528 102.739C403.633 99.6333 407.386 98.0806 411.785 98.0806H454.718V119.431C453.994 118.085 452.182 116.273 449.284 113.996C446.385 111.667 443.15 109.545 439.579 107.63C436.06 105.663 432.618 104.266 429.253 103.438C425.941 102.609 423.508 102.998 421.956 104.602Z" fill="black"/>
<path d="M20.1797 220.93C20.1797 220.398 20.1016 219.922 19.9453 219.5C19.7891 219.062 19.5 218.656 19.0781 218.281C18.6562 217.906 18.0469 217.531 17.25 217.156C16.4688 216.766 15.4375 216.359 14.1562 215.938C12.6562 215.438 11.2109 214.875 9.82031 214.25C8.42969 213.609 7.1875 212.867 6.09375 212.023C5 211.164 4.13281 210.164 3.49219 209.023C2.85156 207.867 2.53125 206.523 2.53125 204.992C2.53125 203.523 2.85938 202.203 3.51562 201.031C4.17188 199.844 5.08594 198.836 6.25781 198.008C7.44531 197.164 8.83594 196.523 10.4297 196.086C12.0234 195.633 13.7656 195.406 15.6562 195.406C18.1562 195.406 20.3594 195.844 22.2656 196.719C24.1875 197.578 25.6875 198.805 26.7656 200.398C27.8594 201.977 28.4062 203.844 28.4062 206H20.2266C20.2266 205.141 20.0469 204.383 19.6875 203.727C19.3438 203.07 18.8203 202.555 18.1172 202.18C17.4141 201.805 16.5312 201.617 15.4688 201.617C14.4375 201.617 13.5703 201.773 12.8672 202.086C12.1641 202.398 11.6328 202.82 11.2734 203.352C10.9141 203.867 10.7344 204.438 10.7344 205.062C10.7344 205.578 10.875 206.047 11.1562 206.469C11.4531 206.875 11.8672 207.258 12.3984 207.617C12.9453 207.977 13.6016 208.32 14.3672 208.648C15.1484 208.977 16.0234 209.297 16.9922 209.609C18.8047 210.188 20.4141 210.836 21.8203 211.555C23.2422 212.258 24.4375 213.062 25.4062 213.969C26.3906 214.859 27.1328 215.875 27.6328 217.016C28.1484 218.156 28.4062 219.445 28.4062 220.883C28.4062 222.414 28.1094 223.773 27.5156 224.961C26.9219 226.148 26.0703 227.156 24.9609 227.984C23.8516 228.797 22.5234 229.414 20.9766 229.836C19.4297 230.258 17.7031 230.469 15.7969 230.469C14.0469 230.469 12.3203 230.25 10.6172 229.812C8.92969 229.359 7.39844 228.672 6.02344 227.75C4.64844 226.812 3.54688 225.617 2.71875 224.164C1.90625 222.695 1.5 220.953 1.5 218.938H9.75C9.75 219.938 9.88281 220.781 10.1484 221.469C10.4141 222.156 10.8047 222.711 11.3203 223.133C11.8359 223.539 12.4688 223.836 13.2188 224.023C13.9688 224.195 14.8281 224.281 15.7969 224.281C16.8438 224.281 17.6875 224.133 18.3281 223.836C18.9688 223.523 19.4375 223.117 19.7344 222.617C20.0312 222.102 20.1797 221.539 20.1797 220.93ZM38.8359 195.875L45.1172 210.688L51.4219 195.875H60.2812L49.3125 217.742V230H40.9453V217.742L29.9531 195.875H38.8359ZM79.9922 220.93C79.9922 220.398 79.9141 219.922 79.7578 219.5C79.6016 219.062 79.3125 218.656 78.8906 218.281C78.4688 217.906 77.8594 217.531 77.0625 217.156C76.2812 216.766 75.25 216.359 73.9688 215.938C72.4688 215.438 71.0234 214.875 69.6328 214.25C68.2422 213.609 67 212.867 65.9062 212.023C64.8125 211.164 63.9453 210.164 63.3047 209.023C62.6641 207.867 62.3438 206.523 62.3438 204.992C62.3438 203.523 62.6719 202.203 63.3281 201.031C63.9844 199.844 64.8984 198.836 66.0703 198.008C67.2578 197.164 68.6484 196.523 70.2422 196.086C71.8359 195.633 73.5781 195.406 75.4688 195.406C77.9688 195.406 80.1719 195.844 82.0781 196.719C84 197.578 85.5 198.805 86.5781 200.398C87.6719 201.977 88.2188 203.844 88.2188 206H80.0391C80.0391 205.141 79.8594 204.383 79.5 203.727C79.1562 203.07 78.6328 202.555 77.9297 202.18C77.2266 201.805 76.3438 201.617 75.2812 201.617C74.25 201.617 73.3828 201.773 72.6797 202.086C71.9766 202.398 71.4453 202.82 71.0859 203.352C70.7266 203.867 70.5469 204.438 70.5469 205.062C70.5469 205.578 70.6875 206.047 70.9688 206.469C71.2656 206.875 71.6797 207.258 72.2109 207.617C72.7578 207.977 73.4141 208.32 74.1797 208.648C74.9609 208.977 75.8359 209.297 76.8047 209.609C78.6172 210.188 80.2266 210.836 81.6328 211.555C83.0547 212.258 84.25 213.062 85.2188 213.969C86.2031 214.859 86.9453 215.875 87.4453 217.016C87.9609 218.156 88.2188 219.445 88.2188 220.883C88.2188 222.414 87.9219 223.773 87.3281 224.961C86.7344 226.148 85.8828 227.156 84.7734 227.984C83.6641 228.797 82.3359 229.414 80.7891 229.836C79.2422 230.258 77.5156 230.469 75.6094 230.469C73.8594 230.469 72.1328 230.25 70.4297 229.812C68.7422 229.359 67.2109 228.672 65.8359 227.75C64.4609 226.812 63.3594 225.617 62.5312 224.164C61.7188 222.695 61.3125 220.953 61.3125 218.938H69.5625C69.5625 219.938 69.6953 220.781 69.9609 221.469C70.2266 222.156 70.6172 222.711 71.1328 223.133C71.6484 223.539 72.2812 223.836 73.0312 224.023C73.7812 224.195 74.6406 224.281 75.6094 224.281C76.6562 224.281 77.5 224.133 78.1406 223.836C78.7812 223.523 79.25 223.117 79.5469 222.617C79.8438 222.102 79.9922 221.539 79.9922 220.93ZM106.922 203.047L98.6016 230H89.7656L102.305 195.875H107.906L106.922 203.047ZM113.812 230L105.469 203.047L104.391 195.875H110.062L122.672 230H113.812ZM113.484 217.273V223.625H95.9766V217.273H113.484ZM136.266 230H128.695L128.742 223.672H136.266C137.828 223.672 139.148 223.297 140.227 222.547C141.32 221.797 142.148 220.68 142.711 219.195C143.289 217.695 143.578 215.852 143.578 213.664V212.188C143.578 210.547 143.414 209.109 143.086 207.875C142.773 206.625 142.305 205.586 141.68 204.758C141.055 203.914 140.273 203.281 139.336 202.859C138.414 202.438 137.352 202.227 136.148 202.227H128.555V195.875H136.148C138.461 195.875 140.578 196.273 142.5 197.07C144.438 197.852 146.109 198.977 147.516 200.445C148.938 201.898 150.031 203.625 150.797 205.625C151.578 207.609 151.969 209.812 151.969 212.234V213.664C151.969 216.07 151.578 218.273 150.797 220.273C150.031 222.273 148.945 224 147.539 225.453C146.133 226.906 144.469 228.031 142.547 228.828C140.641 229.609 138.547 230 136.266 230ZM133.406 195.875V230H125.18V195.875H133.406ZM160.336 195.875H167.039L174.656 219.617L182.273 195.875H188.977L177.375 230H171.938L160.336 195.875ZM156.258 195.875H163.195L164.484 222.031V230H156.258V195.875ZM186.117 195.875H193.078V230H184.828V222.031L186.117 195.875ZM207.094 195.875V230H198.891V195.875H207.094ZM241.383 195.875V230H233.18L221.109 208.766V230H212.883V195.875H221.109L233.18 217.109V195.875H241.383Z" fill="#1E3329"/>
</svg>
